<svg width="1000" height="1000" viewBox="0 0 1000 1000" fill="none" xmlns="http://www.w3.org/2000/svg">
<rect width="1000" height="1000" rx="10" fill="#E5E5E0"/>
<g clip-path="url(#clip0_3_2)">
<path d="M462.345 195.235L347.864 78.9554L40 386.803V614.177L40.8041 614.977L462.345 195.235ZM233.32 500.495L347.781 386.033L614.853 653.105L500.394 767.565L233.32 500.495ZM614.977 960.196L195.235 538.655L78.9554 653.136L386.807 961H614.173L614.977 960.196ZM386.019 40.8005L805.772 462.352L922.052 347.877L614.2 40H386.819L386.019 40.8005ZM385.952 347.896L500.414 233.435L767.489 500.509L653.028 614.97L385.952 347.896ZM653.132 922.041L961 614.173V385.238L538.655 805.765L653.132 922.041ZM961 961V690.483L690.483 961H961ZM40 690.487V961H310.497L40 690.487ZM960.207 309.722L961 308.928V40H690.507L960.207 309.722ZM40 40V310.497L310.51 40H40Z" fill="black"/>
</g>
<defs>
<clipPath id="clip0_3_2">
<rect x="40" y="40" width="921" height="921" rx="10" fill="white"/>
</clipPath>
</defs>
</svg>
