<svg xmlns="http://www.w3.org/2000/svg" width="2000" height="2000" viewBox="0 0 2000 2000" fill="none">
<rect width="2000" height="2000" fill="#CE0037"/>
<path fill-rule="evenodd" clip-rule="evenodd" d="M999.5 1622C1342.74 1622 1621 1343.74 1621 1000.5C1621 657.255 1342.74 379 999.5 379C656.255 379 378 657.255 378 1000.5C378 1343.74 656.255 1622 999.5 1622ZM999.5 1547.42C1301.56 1547.42 1546.42 1302.56 1546.42 1000.5C1546.42 698.444 1301.56 453.58 999.5 453.58C697.444 453.58 452.58 698.444 452.58 1000.5C452.58 1302.56 697.444 1547.42 999.5 1547.42ZM999.5 1472.84C1260.37 1472.84 1471.84 1261.37 1471.84 1000.5C1471.84 739.634 1260.37 528.16 999.5 528.16C738.634 528.16 527.16 739.634 527.16 1000.5C527.16 1261.37 738.634 1472.84 999.5 1472.84ZM999.5 1398.26C1219.18 1398.26 1397.26 1220.18 1397.26 1000.5C1397.26 780.823 1219.18 602.74 999.5 602.74C779.823 602.74 601.74 780.823 601.74 1000.5C601.74 1220.18 779.823 1398.26 999.5 1398.26ZM1322.68 1000.5C1322.68 1178.99 1177.99 1323.68 999.5 1323.68C821.013 1323.68 676.32 1178.99 676.32 1000.5C676.32 822.013 821.013 677.32 999.5 677.32C1177.99 677.32 1322.68 822.013 1322.68 1000.5ZM1248.1 1000.5C1248.1 1137.8 1136.8 1249.1 999.5 1249.1C862.202 1249.1 750.9 1137.8 750.9 1000.5C750.9 863.202 862.202 751.9 999.5 751.9C1136.8 751.9 1248.1 863.202 1248.1 1000.5Z" fill="black"/>
<path fill-rule="evenodd" clip-rule="evenodd" d="M379 645.143L645.143 379L801.329 554.217C907.167 672.95 1092.83 672.95 1198.67 554.217L1354.86 379L1621 645.143L1458.22 784.054C1325.41 897.388 1325.41 1102.61 1458.22 1215.95L1621 1354.86L1354.86 1621L1202.45 1442.4C1096.2 1317.89 903.801 1317.89 797.551 1442.4L645.143 1621L379 1354.86L549.691 1209.2C678.35 1099.41 678.35 900.595 549.691 790.803L379 645.143Z" fill="white"/>
</svg>